<svg width="488" height="488" viewBox="0 0 488 488" fill="none" xmlns="http://www.w3.org/2000/svg">
<path d="M75 208H393.5L429.5 401.5L364 452.5L269 475L119 452.5L75 389V208Z" fill="white"/>
<rect width="53" height="159" transform="matrix(-1 0 0 1 347 49)" fill="#8BCE79"/>
<rect width="53" height="159" transform="matrix(-1 0 0 1 347 49)" fill="#D3C7E2"/>
<rect width="74" height="181" transform="matrix(-1 0 0 1 284 27)" fill="#FBB1B1"/>
<rect width="53" height="159" transform="matrix(-1 0 0 1 196 49)" fill="#ECD768"/>
<rect width="58" height="123" transform="matrix(-1 0 0 1 131 85)" fill="#8BCE79"/>
<rect width="59" height="110" transform="matrix(-1 0 0 1 424 221)" fill="#F3C9AD"/>
<path d="M105.959 69.8585C113.446 69.8585 120.548 71.5146 126.94 74.4597C131.275 51.0981 151.793 33.348 176.392 33.348C184.119 33.348 191.442 35.1028 197.992 38.23C203.417 16.3052 223.248 0 246.825 0C270.402 0 290.233 16.3062 295.658 38.23C302.206 35.1038 309.53 33.348 317.258 33.348C344.998 33.348 367.567 55.9168 367.567 83.6573V206.635C373.734 203.933 380.538 202.422 387.691 202.422C415.431 202.422 438 224.991 438 252.732V356.19C438 428.87 378.871 488 306.19 488H187.46C114.78 488 55.6495 428.87 55.6495 356.19V120.168C55.6495 92.4262 78.2182 69.8585 105.959 69.8585ZM85.835 356.19C85.835 412.225 131.424 457.814 187.46 457.814H306.19C362.225 457.814 407.814 412.225 407.814 356.19V252.732C407.814 241.635 398.787 232.608 387.691 232.608C376.595 232.608 367.567 241.635 367.567 252.732V333.227H337.381V83.6573C337.381 72.5611 328.354 63.5336 317.258 63.5336C306.162 63.5336 297.134 72.5611 297.134 83.6573V242.67H266.948V50.3093C266.948 39.2131 257.921 30.1856 246.825 30.1856C235.729 30.1856 226.701 39.2131 226.701 50.3093V242.67H196.515V83.6573C196.515 72.5611 187.488 63.5336 176.392 63.5336C165.296 63.5336 156.268 72.5611 156.268 83.6573V242.67H126.082V120.167C126.082 109.071 117.055 100.043 105.959 100.043C94.8625 100.043 85.835 109.071 85.835 120.167V356.19Z" fill="#2B2B2B"/>
</svg>
