<svg width="488" height="488" viewBox="0 0 488 488" fill="none" xmlns="http://www.w3.org/2000/svg">
<path d="M85 208H410V397L362 452.5L267 475L117 452.5L73 389L85 208Z" fill="white"/>
<rect x="141" y="49" width="53" height="159" fill="#8BCE79"/>
<rect x="141" y="49" width="53" height="159" fill="#9AB5D6"/>
<rect x="204" y="27" width="74" height="181" fill="#ECD768"/>
<rect x="292" y="49" width="53" height="159" fill="#FBB1B1"/>
<rect x="357" y="85" width="58" height="123" fill="#8BCE79"/>
<rect x="64" y="221" width="59" height="110" fill="#F3C9AD"/>
<path d="M382.041 69.8585C374.554 69.8585 367.452 71.5146 361.06 74.4597C356.725 51.0981 336.207 33.348 311.608 33.348C303.881 33.348 296.558 35.1028 290.008 38.23C284.583 16.3052 264.752 0 241.175 0C217.598 0 197.767 16.3062 192.342 38.23C185.794 35.1038 178.47 33.348 170.742 33.348C143.002 33.348 120.433 55.9168 120.433 83.6573V206.635C114.266 203.933 107.462 202.422 100.309 202.422C72.5687 202.422 50 224.991 50 252.732V356.19C50 428.87 109.129 488 181.81 488H300.54C373.22 488 432.351 428.87 432.351 356.19V120.168C432.351 92.4262 409.782 69.8585 382.041 69.8585ZM402.165 356.19C402.165 412.225 356.576 457.814 300.54 457.814H181.81C125.775 457.814 80.1856 412.225 80.1856 356.19V252.732C80.1856 241.635 89.2131 232.608 100.309 232.608C111.405 232.608 120.433 241.635 120.433 252.732V333.227H150.619V83.6573C150.619 72.5611 159.646 63.5336 170.742 63.5336C181.838 63.5336 190.866 72.5611 190.866 83.6573V242.67H221.052V50.3093C221.052 39.2131 230.079 30.1856 241.175 30.1856C252.271 30.1856 261.299 39.2131 261.299 50.3093V242.67H291.485V83.6573C291.485 72.5611 300.512 63.5336 311.608 63.5336C322.704 63.5336 331.732 72.5611 331.732 83.6573V242.67H361.918V120.167C361.918 109.071 370.945 100.043 382.041 100.043C393.137 100.043 402.165 109.071 402.165 120.167V356.19Z" fill="#2B2B2B"/>
</svg>
